# xmcd
#
# Track frame offsets:
#	150
#	14218
#	33329
#	46475
#	63691
#	81499
#	100179
#	112173
#	170767
#
# Disc length: 2651 seconds
#
# Revision: 0
# Processed by: cddbd v1.5.1PL0 Copyright (c) Steve Scherf et al.
# Submitted via: dBpowerAMP V4.0
#
DISCID=840a5909
DTITLE=Boz Scaggs - Boz Scaggs
DYEAR=1900
DGENRE=Blues
TTITLE0=I'm Easy
TTITLE1=I'll Be Long Gone
TTITLE2=Another Day (Another Letter)
TTITLE3=Now You're Gone
TTITLE4=Finding Her
TTITLE5=Look What I Got
TTITLE6=Waiting For A Train
TTITLE7=Loan Me A Dime
TTITLE8=Sweet Release
EXTD=
EXTT0=
EXTT1=
EXTT2=
EXTT3=
EXTT4=
EXTT5=
EXTT6=
EXTT7=
EXTT8=
PLAYORDER=
